<svg width="60" height="60" viewBox="0 0 60 60" fill="none" xmlns="http://www.w3.org/2000/svg">
    <g clip-path="url(#clip0_25_749)">
        <path d="M24.2045 4.08926C26.143 -1.36195 33.8522 -1.36195 35.7907 4.08926C37.0114 7.52215 40.9328 9.14637 44.2235 7.58227C49.4489 5.09848 54.9001 10.5497 52.4162 15.775C50.852 19.0656 52.4763 22.9869 55.9092 24.2078C61.3604 26.1463 61.3604 33.8555 55.9092 35.794C52.4763 37.0147 50.8521 40.9361 52.4162 44.2268C54.9 49.4522 49.4488 54.9034 44.2235 52.4195C40.9329 50.8553 37.0116 52.4796 35.7907 55.9125C33.8522 61.3637 26.143 61.3637 24.2045 55.9125C22.9837 52.4796 19.0624 50.8554 15.7717 52.4195C10.5463 54.9033 5.09507 49.4521 7.57897 44.2268C9.14319 40.9362 7.51886 37.0149 4.08597 35.794C-1.36524 33.8555 -1.36524 26.1463 4.08597 24.2078C7.51886 22.987 9.14308 19.0657 7.57897 15.775C5.09519 10.5496 10.5464 5.09836 15.7717 7.58227C19.0624 9.14637 22.9837 7.52215 24.2045 4.08926Z"
              fill="#FFDA45"/>
        <path d="M30.0018 30.0003C30.0018 21.248 33.7508 13.372 39.7294 7.88788C37.9683 7.32795 36.4694 5.98522 35.795 4.08877C33.8565 -1.36244 26.1473 -1.36244 24.2088 4.08877C22.988 7.52167 19.0667 9.146 15.7761 7.58178C10.5507 5.09799 5.09946 10.5492 7.58337 15.7745C9.14759 19.0651 7.52325 22.9864 4.09036 24.2072C-1.36085 26.1457 -1.36085 33.8549 4.09036 35.7934C7.52325 37.0141 9.14747 40.9356 7.58337 44.2261C5.09958 49.4515 10.5508 54.9027 15.7761 52.4188C19.0667 50.8546 22.988 52.4789 24.2088 55.9118C26.1473 61.363 33.8565 61.363 35.795 55.9118C36.4694 54.0153 37.9684 52.6726 39.7294 52.1127C33.7508 46.6287 30.0018 38.7527 30.0018 30.0003Z"
              fill="#FFC247"/>
        <path d="M46.6669 30C46.6669 22.4023 41.5823 15.9935 34.6308 13.9868C29.0199 16.4133 26.3784 24.1112 26.3784 30C26.3784 35.8888 30.0002 43.1554 34.6308 46.0132C41.5824 44.0065 46.6669 37.5978 46.6669 30Z"
              fill="#FFF04A"/>
        <path d="M13.3335 30C13.3335 39.2047 20.7954 46.6667 30.0001 46.6667C31.6072 46.6667 33.1609 46.4385 34.6313 46.014C31.6995 41.3801 30.0001 35.8892 30.0001 30C30.0001 24.1109 31.6995 18.6199 34.6313 13.986C33.1259 13.552 31.5668 13.3323 30.0001 13.3334C20.7954 13.3334 13.3335 20.7953 13.3335 30Z"
              fill="#FFDA45"/>
        <path d="M20.3954 35.0434C22.3527 35.0434 23.9393 33.7799 23.9393 32.2213C23.9393 30.6627 22.3527 29.3992 20.3954 29.3992C18.4382 29.3992 16.8516 30.6627 16.8516 32.2213C16.8516 33.7799 18.4382 35.0434 20.3954 35.0434Z"
              fill="#FFA1AC"/>
        <path d="M39.6044 35.0434C41.5616 35.0434 43.1483 33.7799 43.1483 32.2213C43.1483 30.6627 41.5616 29.3992 39.6044 29.3992C37.6472 29.3992 36.0605 30.6627 36.0605 32.2213C36.0605 33.7799 37.6472 35.0434 39.6044 35.0434Z"
              fill="#FFA1AC"/>
        <path d="M32.565 28.7988C32.478 28.723 32.3769 28.665 32.2675 28.6283C32.1581 28.5915 32.0425 28.5767 31.9273 28.5846C31.8122 28.5925 31.6997 28.623 31.5964 28.6744C31.493 28.7258 31.4008 28.797 31.325 28.884C31.1601 29.0735 30.9565 29.2255 30.7279 29.3297C30.4993 29.4339 30.2511 29.4879 29.9999 29.488C29.7487 29.4878 29.5005 29.4338 29.2719 29.3297C29.0434 29.2255 28.8398 29.0735 28.6749 28.884C28.5217 28.7083 28.305 28.6006 28.0725 28.5846C27.8399 28.5686 27.6105 28.6457 27.4348 28.7988C27.2591 28.952 27.1513 29.1687 27.1354 29.4012C27.1194 29.6338 27.1965 29.8632 27.3496 30.0389C28.018 30.806 28.984 31.2459 29.9998 31.2459C31.0156 31.2459 31.9816 30.806 32.65 30.0389C32.7258 29.9519 32.7838 29.8508 32.8206 29.7414C32.8574 29.632 32.8722 29.5164 32.8643 29.4013C32.8565 29.2861 32.826 29.1736 32.7746 29.0703C32.7233 28.9669 32.652 28.8747 32.565 28.7988Z"
              fill="#495560"/>
        <path d="M39.1184 24.9565H36.1524C35.6709 24.9551 35.206 25.1326 34.8479 25.4545C34.837 25.4527 34.8264 25.4498 34.8154 25.4484C33.691 25.2952 32.1459 25.1191 30.1609 25.1191C28.1758 25.1191 26.6308 25.295 25.5064 25.4484C25.4954 25.45 25.4848 25.4527 25.4739 25.4545C25.1159 25.1326 24.651 24.9551 24.1694 24.9565H21.2034C19.9573 24.9565 19.0286 26.1055 19.2898 27.3239L19.4541 28.09C19.7302 29.3775 20.8681 30.2973 22.185 30.2973H23.1878C24.5047 30.2973 25.6427 29.3775 25.9187 28.09L26.083 27.3239C26.0961 27.2629 26.1053 27.2019 26.1126 27.1413C27.1426 27.0094 28.4886 26.877 30.1609 26.877C31.8332 26.877 33.1793 27.0094 34.2092 27.1413C34.2165 27.2019 34.2257 27.2629 34.2389 27.3239L34.4032 28.09C34.6793 29.3775 35.8171 30.2973 37.134 30.2973H38.1369C39.4537 30.2973 40.5917 29.3775 40.8677 28.09L41.032 27.3239C41.2932 26.1055 40.3645 24.9565 39.1184 24.9565Z"
              fill="#495560"/>
    </g>
    <defs>
        <clipPath id="clip0_25_749">
            <rect width="60" height="60" fill="white"/>
        </clipPath>
    </defs>
</svg>
