<svg xmlns="http://www.w3.org/2000/svg" width="14" height="16" viewBox="0 0 14 16" fill="none">
    <path d="M14 9.5V1.5C14 0.671573 13.3284 0 12.5 0C11.6716 0 11 0.671573 11 1.5V9.5C11 10.3284 11.6716 11 12.5 11C13.3284 11 14 10.3284 14 9.5Z" fill="#E2E8F0"/>
    <path d="M14 9.5V1.5C14 0.671573 13.3284 0 12.5 0C11.6716 0 11 0.671573 11 1.5V9.5C11 10.3284 11.6716 11 12.5 11C13.3284 11 14 10.3284 14 9.5Z" fill="#E2E8F0"/>
    <path d="M10.1579 10.0629L5.80974 1.82588C5.3676 0.988311 4.33019 0.667755 3.49262 1.1099C2.65506 1.55204 2.3345 2.58944 2.77664 3.42701L7.12485 11.664C7.56699 12.5016 8.6044 12.8221 9.44196 12.38C10.2795 11.9379 10.6001 10.9004 10.1579 10.0629Z" fill="#E2E8F0"/>
    <path d="M10.1579 10.0629L5.80974 1.82588C5.3676 0.988311 4.33019 0.667755 3.49262 1.1099C2.65506 1.55204 2.3345 2.58944 2.77664 3.42701L7.12485 11.664C7.56699 12.5016 8.6044 12.8221 9.44196 12.38C10.2795 11.9379 10.6001 10.9004 10.1579 10.0629Z" fill="#E2E8F0"/>
    <path d="M5.53133 11.9819L3.01427 9.93352C2.3807 9.41793 1.44913 9.51358 0.933548 10.1471C0.417964 10.7807 0.513605 11.7123 1.14717 12.2279L3.66423 14.2762C4.2978 14.7918 5.22937 14.6961 5.74495 14.0626C6.26053 13.429 6.16489 12.4974 5.53133 11.9819Z" fill="#E2E8F0"/>
    <path d="M5.53133 11.9819L3.01427 9.93352C2.3807 9.41793 1.44913 9.51358 0.933548 10.1471C0.417964 10.7807 0.513605 11.7123 1.14717 12.2279L3.66423 14.2762C4.2978 14.7918 5.22937 14.6961 5.74495 14.0626C6.26053 13.429 6.16489 12.4974 5.53133 11.9819Z" fill="#E2E8F0"/>
</svg>