<svg width="24" height="24" viewBox="0 0 24 24" fill="none" xmlns="http://www.w3.org/2000/svg">
    <path d="M16.2147 1.47559C17.6188 0.260878 19.7763 1.44847 19.5011 3.28458L18.5393 9.70216C18.4527 10.2794 18.6227 10.8657 19.0046 11.3071L23.2503 16.2148C24.465 17.6189 23.2774 19.7764 21.4413 19.5012L15.0237 18.5393C14.4464 18.4528 13.8602 18.6228 13.4187 19.0047L8.51111 23.2504C7.10701 24.4651 4.94948 23.2775 5.22468 21.4414L6.18656 15.0238C6.27308 14.4465 6.10309 13.8603 5.72119 13.4188L1.47552 8.51118C0.260806 7.10708 1.44839 4.94956 3.28451 5.22475L9.70209 6.18663C10.2794 6.27315 10.8656 6.10316 11.3071 5.72126L16.2147 1.47559Z" fill="white"/>
</svg>
