<svg width="505" height="44" viewBox="0 0 505 44" fill="none" xmlns="http://www.w3.org/2000/svg">
    <path d="M-4.80342 42.5241L-3.60341 43.6055L-3.59563 43.5995L-3.56856 43.5785L-3.45788 43.4932C-3.35923 43.4173 -3.21124 43.3039 -3.01606 43.1555C-2.62568 42.8586 -2.04659 42.4217 -1.29601 41.8646C0.20524 40.7505 2.39188 39.1564 5.12603 37.2425C10.5963 33.4132 18.2486 28.3103 26.9814 23.2104C35.7196 18.1075 45.5067 13.0272 55.2488 9.22748C65.0171 5.41761 74.5987 2.95181 82.964 2.95181C99.6246 2.95181 112.314 12.7181 125.648 23.0815L125.91 23.2854C138.904 33.3856 152.56 44 170.731 44C188.903 44 202.558 33.3856 215.553 23.2854L215.815 23.0815C229.149 12.7181 241.838 2.95181 258.499 2.95181C275.159 2.95181 287.849 12.7181 301.183 23.0815L301.445 23.2855C314.439 33.3856 328.095 44 346.266 44C364.437 44 378.093 33.3856 391.087 23.2855L391.35 23.0815C404.684 12.7181 417.373 2.95181 434.034 2.95181C442.399 2.95181 451.981 5.41761 461.749 9.22748C471.491 13.0272 481.278 18.1075 490.016 23.2104C498.749 28.3103 506.401 33.4132 511.872 37.2425C514.606 39.1564 516.793 40.7505 518.294 41.8646C519.044 42.4217 519.623 42.8586 520.014 43.1555C520.209 43.3039 520.357 43.4173 520.456 43.4932L520.566 43.5785L520.6 43.6044L521.801 42.5241L522.889 41.5431C523.001 41.4422 523 41.4418 523 41.4418L522.99 41.4338L522.959 41.4102L522.842 41.3195C522.738 41.24 522.585 41.1229 522.385 40.9707C521.985 40.6663 521.395 40.2213 520.633 39.656C519.11 38.5253 516.897 36.9125 514.134 34.9782C508.61 31.1109 500.874 25.9518 492.034 20.7896C483.2 15.6305 473.23 10.4487 463.238 6.55189C453.273 2.66523 443.145 0 434.034 0C415.863 0 402.207 10.6145 389.212 20.7146L388.95 20.9185C375.616 31.2819 362.927 41.0482 346.266 41.0482C329.606 41.0482 316.916 31.2819 303.582 20.9185L303.32 20.7146C290.326 10.6145 276.67 0 258.499 0C240.328 0 226.672 10.6145 213.678 20.7146L213.415 20.9185C200.082 31.2819 187.392 41.0482 170.731 41.0482C154.071 41.0482 141.381 31.2819 128.048 20.9185L127.785 20.7146C114.791 10.6144 101.135 0 82.964 0C73.8523 0 63.7244 2.66523 53.7593 6.55189C43.7681 10.4487 33.798 15.6305 24.9636 20.7896C16.1239 25.9518 8.38818 31.1109 2.86361 34.9782C0.100357 36.9125 -2.11213 38.5253 -3.63564 39.656C-4.39745 40.2213 -4.98716 40.6663 -5.38748 40.9707C-5.58765 41.1229 -5.74048 41.24 -5.84382 41.3195L-5.96146 41.4102L-6 41.44C-6 41.44 -6.00325 41.4426 -4.80342 42.5241Z" fill="#D9D9D9" fill-opacity="0.5"/>
</svg>
