<svg width="14" height="14" viewBox="0 0 14 14" fill="none" xmlns="http://www.w3.org/2000/svg">
    <path d="M9.37646 0.332286C10.0785 -0.275071 11.1573 0.318725 11.0197 1.23678L10.3965 5.39446C10.3533 5.68309 10.4382 5.97622 10.6292 6.19694L13.3798 9.37639C13.9871 10.0784 13.3933 11.1572 12.4753 11.0196L8.31761 10.3964C8.02898 10.3532 7.73585 10.4382 7.51513 10.6291L4.33568 13.3797C3.63363 13.9871 2.55487 13.3933 2.69247 12.4752L3.31563 8.31755C3.35889 8.02891 3.27389 7.73578 3.08294 7.51506L0.332355 4.33562C-0.275002 3.63356 0.318794 2.5548 1.23685 2.6924L5.39453 3.31556C5.68316 3.35882 5.97629 3.27382 6.19701 3.08287L9.37646 0.332286Z" fill="white"/>
</svg>
